<?xml version="1.0" standalone="no"?>
<!DOCTYPE svg PUBLIC "-//W3C//DTD SVG 20010904//EN"
 "http://www.w3.org/TR/2001/REC-SVG-20010904/DTD/svg10.dtd">
<svg version="1.0" xmlns="http://www.w3.org/2000/svg"
 width="300.000000pt" height="300.000000pt" viewBox="0 0 300.000000 300.000000"
 preserveAspectRatio="xMidYMid meet">
<metadata>
Created by potrace 1.10, written by Peter Selinger 2001-2011
</metadata>
<g transform="translate(0.000000,300.000000) scale(0.100000,-0.100000)"
fill="#000000" stroke="none">
<path d="M1345 2302 c44 -21 60 -37 68 -67 5 -19 5 -19 6 1 1 26 -46 71 -84
79 -26 5 -24 4 10 -13z"/>
<path d="M1247 2290 c-14 -11 -28 -34 -32 -51 -8 -34 9 -85 31 -93 24 -9 16
-21 -23 -35 -174 -62 -352 -241 -418 -421 -9 -25 -21 -53 -26 -62 -5 -9 -5
-19 0 -22 4 -3 16 21 25 52 61 196 242 381 440 448 49 17 58 29 27 37 -10 2
-27 16 -36 31 -26 39 -13 91 28 116 18 11 27 20 21 20 -6 0 -23 -9 -37 -20z"/>
<path d="M1267 2262 c-21 -23 -22 -66 -1 -86 19 -19 16 -19 49 -2 15 8 34 12
42 9 17 -7 33 13 33 40 0 49 -89 77 -123 39z m96 -13 c19 -26 11 -62 -12 -54
-9 2 -28 -1 -43 -9 -19 -10 -29 -11 -37 -3 -15 15 -14 60 1 75 20 20 75 15 91
-9z"/>
<path d="M1405 2188 c-4 -13 -8 -27 -9 -32 -1 -5 51 -9 114 -11 63 -1 104 2
90 6 -14 4 -62 7 -107 8 -46 1 -83 4 -83 7 0 3 5 14 10 25 6 11 7 19 2 19 -6
0 -13 -10 -17 -22z"/>
<path d="M1695 2116 c109 -35 193 -85 274 -161 158 -150 231 -315 231 -526 1
-601 -699 -936 -1165 -558 -109 88 -185 197 -230 328 -25 74 -47 211 -40 247
2 10 6 48 9 84 3 50 2 58 -5 35 -15 -46 -12 -243 5 -302 7 -28 11 -54 8 -57
-3 -3 0 -6 6 -6 7 0 12 -6 12 -14 0 -23 82 -178 112 -211 14 -16 39 -44 55
-62 43 -48 181 -137 258 -166 99 -37 192 -51 304 -44 149 9 279 57 396 146 59
45 145 131 145 145 0 4 11 22 25 40 34 44 80 149 100 227 24 91 16 297 -15
389 -27 81 -64 153 -107 207 -18 23 -33 46 -33 53 0 6 -4 8 -10 5 -5 -3 -10
-2 -10 4 0 18 -138 126 -202 159 -64 32 -151 62 -178 61 -8 0 17 -10 55 -23z"/>
<path d="M1361 2019 c-24 -5 -47 -11 -50 -15 -3 -3 14 -2 39 2 52 10 205 11
270 2 l45 -7 -50 14 c-56 15 -188 17 -254 4z"/>
<path d="M1210 1964 c-90 -45 -192 -140 -243 -225 -44 -75 -81 -187 -75 -229
3 -17 1 -30 -4 -30 -13 0 -9 -98 7 -175 24 -113 77 -209 164 -296 123 -122
226 -168 391 -176 130 -7 196 6 301 59 94 47 187 129 241 212 39 60 88 196 88
243 0 37 -8 24 -15 -23 -33 -219 -218 -417 -439 -468 -282 -66 -564 73 -685
337 -29 63 -50 170 -45 232 2 28 3 64 3 81 1 55 49 188 92 250 22 32 65 82 95
110 57 52 162 114 195 114 10 0 19 5 19 10 0 16 -13 12 -90 -26z"/>
<path d="M1732 1967 c130 -65 217 -150 278 -271 38 -77 79 -234 65 -255 -3 -5
0 -20 5 -33 8 -17 9 -2 5 56 -12 156 -79 300 -188 403 -52 49 -160 115 -207
127 -14 4 5 -9 42 -27z"/>
<path d="M1397 1973 c-3 -5 27 -7 67 -5 41 2 100 -3 139 -12 65 -15 167 -60
167 -73 0 -3 -7 -15 -17 -25 -9 -10 -13 -21 -9 -26 9 -9 36 26 36 47 0 17 -61
61 -83 61 -8 0 -17 3 -21 7 -3 4 -12 8 -19 9 -7 1 -32 7 -57 13 -52 12 -197
15 -203 4z"/>
<path d="M1293 1946 c-35 -13 -88 -41 -119 -62 -66 -45 -144 -129 -144 -153 0
-18 45 -49 56 -38 4 3 -5 12 -20 18 -14 7 -26 17 -26 24 0 27 139 145 211 180
40 19 79 35 86 35 6 0 15 5 18 10 8 12 12 13 -62 -14z"/>
<path d="M1370 1938 c0 -15 5 -30 10 -33 13 -8 13 25 0 45 -8 12 -10 9 -10
-12z"/>
<path d="M1865 1808 c69 -70 122 -156 140 -230 6 -24 4 -28 -13 -28 -12 0 -24
-4 -27 -10 -7 -12 25 -13 43 -1 20 12 12 46 -32 135 -37 75 -148 206 -174 206
-5 0 23 -33 63 -72z"/>
<path d="M1607 1644 c-127 -118 -186 -181 -183 -191 3 -8 6 -23 6 -34 0 -12
13 -27 30 -37 l31 -17 -123 -117 c-67 -64 -124 -115 -127 -113 -2 2 38 72 89
155 50 84 90 154 87 156 -2 2 -55 -80 -117 -183 -62 -104 -120 -197 -129 -208
-19 -25 36 24 149 131 47 44 113 107 148 139 49 46 87 100 183 259 67 111 129
209 137 219 38 43 -7 4 -181 -159z m75 9 c-27 -43 -55 -89 -63 -102 -44 -75
-79 -123 -79 -109 0 22 -45 52 -65 44 -28 -10 -16 6 42 58 31 28 88 81 126
119 38 37 74 67 78 67 5 0 -13 -35 -39 -77z m-168 -189 c40 -40 -3 -101 -53
-75 -37 20 -18 91 24 91 7 0 21 -7 29 -16z"/>
<path d="M1418 1677 c3 -92 3 -92 -26 -114 -29 -21 -29 -21 -72 -2 -24 11 -45
18 -46 16 -2 -2 10 -16 27 -31 25 -23 33 -26 41 -15 10 14 9 11 -14 -55 -9
-23 -29 -37 -102 -71 l-91 -42 100 2 c90 1 100 3 103 21 2 14 1 15 -6 6 -6 -9
-26 -12 -63 -10 l-54 3 49 24 c36 17 50 20 56 11 4 -7 10 4 15 27 14 76 79
133 152 133 21 0 33 4 26 8 -6 4 -30 47 -53 95 -23 48 -42 87 -43 87 -1 0 -1
-42 1 -93z m47 -29 c14 -28 25 -53 25 -54 0 -1 -13 -4 -28 -6 -29 -4 -29 -4
-29 54 0 32 1 58 3 58 2 0 15 -23 29 -52z"/>
<path d="M992 1677 c-32 -66 -52 -129 -51 -167 0 -26 4 -18 15 34 9 38 27 91
40 119 14 27 24 51 21 53 -2 2 -13 -15 -25 -39z"/>
<path d="M2020 1504 c0 -16 5 -36 11 -44 7 -11 8 -4 3 25 -8 50 -14 58 -14 19z"/>
<path d="M1625 1500 c-2 -4 -1 -20 4 -36 24 -89 -50 -183 -146 -185 -34 0 -36
-2 -16 -11 19 -9 33 -35 85 -153 12 -28 13 -22 16 70 2 85 6 103 24 122 20 21
22 21 57 7 64 -28 67 -27 28 7 -36 31 -38 37 -32 70 6 34 11 38 93 74 48 20
88 38 89 39 1 1 -43 2 -98 2 -55 1 -101 -2 -104 -6z m125 -11 c0 -8 -98 -47
-104 -41 -3 3 -6 15 -6 28 0 20 4 22 55 21 30 -1 55 -4 55 -8z m-110 -149 c0
-5 -2 -10 -4 -10 -3 0 -8 5 -11 10 -3 6 -1 10 4 10 6 0 11 -4 11 -10z m-83
-115 c-6 -84 -8 -82 -54 32 -4 10 7 14 50 22 5 0 6 -24 4 -54z"/>
<path d="M932 1425 c0 -47 24 -169 27 -134 1 10 13 19 32 23 17 3 28 10 24 16
-4 6 -15 6 -32 -1 -14 -5 -27 -8 -29 -7 -1 2 -7 37 -12 78 -8 65 -9 68 -10 25z"/>
<path d="M2017 1342 c-6 -52 -39 -147 -61 -177 -12 -16 -16 -17 -30 -6 -8 7
-21 11 -28 9 -8 -3 -4 -9 10 -17 13 -7 30 -10 37 -7 20 7 60 92 74 156 19 88
20 90 11 90 -4 0 -10 -21 -13 -48z"/>
<path d="M970 1234 c-1 -43 108 -193 182 -249 35 -27 140 -75 194 -89 70 -18
215 -21 245 -6 20 11 24 36 9 60 -14 22 -22 6 -11 -23 8 -20 7 -27 -5 -31 -30
-12 -171 -6 -228 9 -60 16 -156 54 -156 62 0 3 9 16 20 30 11 15 18 29 14 32
-3 3 -16 -6 -28 -22 l-22 -27 -40 29 c-50 37 -100 99 -141 176 -18 33 -33 55
-33 49z"/>
<path d="M1881 1068 c-64 -70 -114 -106 -193 -138 -32 -13 -56 -26 -53 -28 6
-6 96 29 127 50 14 10 29 18 33 18 17 0 153 146 144 154 -2 2 -28 -23 -58 -56z"/>

</g>
</svg>
